# xmcd
#
# Track frame offsets:
# 150
# 12540
# 26857
# 42602
# 59075
# 77087
# 88090
# 99910
# 118125
# 133012
# 148952
# 169342
# 187347
#
# Disc length: 2664 seconds
#
#
# Revision: 0
# Processed by: cddbd v1.5.2PL0 Copyright (c) Steve Scherf et al.
# Submitted via: FreeRIP 2.00 
#
DISCID=cb0a660d
DTITLE=Isabella and Leo - Willingly
DYEAR=1900
DGENRE=Country
TTITLE0=Crazy
TTITLE1=Me and Bobby Mc Gee
TTITLE2=Snowbird
TTITLE3=The Ballad of David Crockett
TTITLE4=Amazing Grace
TTITLE5=A House Full of Love
TTITLE6=Oh Lonesome Me
TTITLE7=Willingly
TTITLE8=Crying Time
TTITLE9=A Goodhearted Woman
TTITLE10=Stand By Your Man
TTITLE11=My Elusive Dream
TTITLE12=Stupid Cupid
EXTD=
EXTT0=
EXTT1=
EXTT2=
EXTT3=
EXTT4=
EXTT5=
EXTT6=
EXTT7=
EXTT8=
EXTT9=
EXTT10=
EXTT11=
EXTT12=
PLAYORDER=
